<svg xmlns="http://www.w3.org/2000/svg" width="24" height="26" fill="none"><path d="M.8.2h22.574L21.322 23.21l-4.8 1.338-4.436 1.254h-.044l-4.225-1.202-4.956-1.39-1.71-19.144L.8.324V.2zm11.323 1.846l-.016 2.697c-2.58-.01-5.164-.002-7.745.001.044.873.16 1.74.28 2.605l7.21.07-6.34 2.753c-.18.08-.375.14-.536.26.018.958.172 1.912.24 2.868l3.84-.027 3.078-.007-.033 4.73-2.06-.378L8.4 17.28l-.196-2.272c-.155-.048-.318-.043-.478-.046-.775.005-1.552-.003-2.328.01l.43 4.35 2.295.603 3.526.896c.14.03.28.08.425.07.078.957.018 1.92.032 2.88a5.87 5.87 0 0 0 .797-.191l6.65-1.824.25-2.624.705-7.97.814-9.12c-3.07.003-6.14-.006-9.208.004z" fill="#0170ba"/><path d="M12.123 2.047l9.208-.004-.814 9.12-.705 7.97-.25 2.624-6.65 1.824a5.87 5.87 0 0 1-.797.191l-.032-2.88.08-.016 6.17-1.624.732-8.764-5.252.01a9.81 9.81 0 0 1-.764-.019c.942-.485 1.933-.87 2.9-1.302l2.8-1.228c.18-.083.37-.15.53-.274.062-.228.06-.466.083-.7l.184-2.216-7.438-.016.016-2.697zm.012 11.217l3.592.004-.232 3.67-2.22.665c-.394.12-.8.215-1.174.392l.033-4.73z" fill="#29a9df"/><path d="M4.362 4.745l7.745-.001.028 8.52-3.078.007-3.84.027-.24-2.868c.162-.118.355-.178.536-.26l6.34-2.753c-2.402-.072-4.807.02-7.2-.07l-.28-2.605zm1.046 10.227l2.328-.01c.16.003.324-.002.478.046L8.4 17.28c.534.155 1.1.217 1.632.335l2.06.378.06 2.88-.08.016c-.145.012-.285-.04-.425-.07l-3.526-.896-2.295-.603c-.223-1.44-.353-2.895-.43-4.35z" fill="#cfcfcf"/><path d="M12.107 4.744l7.438.016-.184 2.216c-.024.233-.02.472-.083.7-.158.123-.35.192-.53.274l-2.8 1.228-2.9 1.302.764.02 5.252-.01-.732 8.764-6.17 1.624c-.1-.956.005-1.922-.06-2.88.375-.176.78-.27 1.175-.392l2.22-.665.232-3.67c-1.198.008-2.395-.024-3.592-.004l-.028-8.52z" fill="#fff"/></svg>