<svg xmlns="http://www.w3.org/2000/svg" xmlns:xlink="http://www.w3.org/1999/xlink" width="42" height="26" fill="none"><path d="M35.05 8.187c-.07-1.426.126-2.693-.525-3.765C32.963 1.752 29.06.2 21.268.2v.228h-.16.16V.2c-7.805 0-11.9 1.563-13.453 4.256-.616 1.107-.548 2.34-.65 3.765-.068 1.14-.582 2.34-.354 3.64.262 1.69.354 3.378.616 4.94.194 1.267 1.95 2.34 2.11 3.55.456 3.32 3.902 4.838 11.707 4.838v.262h-.16.194v-.262c7.805 0 11.114-1.53 11.536-4.838.16-1.232 1.79-2.27 1.985-3.55.262-1.563.354-3.252.616-4.94.228-1.3-.297-2.533-.365-3.674z" fill="#efcca3"/><g fill="#ccac8d"><path d="M21.142 9.363c1.392.034 2.373.913 3.286 1.723 1.072.947 2.898 1.598 3.64 2.408.753.8 1.723 1.62 2.077 2.898.354 1.267.456 2.898.456 3.32s.228.32.88 0c1.53-.753 3.218-2.76 3.218-2.76-.194 1.266-1.85 2.408-2.02 3.606-.388 3.32-3.606 4.907-11.57 4.907h-.034.194"/><path d="M26.277 6.818c.297 1.004 1.335 4.416-.685 3.286 0 0 .844.49 1.37 2.34.548 1.848 1.883 2.077 1.883 2.077s2.18.422 3.8-.97c1.37-1.175 1.597-3.252 1.004-4.838-.582-1.563-1.62-2.042-3.15-2.373-1.518-.365-4.576-.65-4.222.48z"/></g><use xlink:href="#B" fill="#000"/><use xlink:href="#C" fill="#fff"/><path d="M25.786 10.4s2.567 1.757 3.97 3.48c1.392 1.723 1.37 2.043 1.37 2.043l-1.004.456s-1.426-2.693-3.183-3.708c-1.792-1.004-1.986-1.848-1.986-1.848l.833-.422z" fill="#efcca3"/><path d="M21.245 9.363c-1.392.034-2.442.913-3.378 1.723-1.073.947-2.955 1.598-3.708 2.408s-1.757 1.62-2.11 2.898c-.354 1.267-.49 2.898-.49 3.32s.068.456-.88 0c-1.53-.72-3.218-2.76-3.218-2.76.194 1.266 1.848 2.408 2.02 3.606.456 3.32 3.674 4.907 11.64 4.907h.16" fill="#ccac8d"/><path d="M28.776 14.85c-1.563-1.917-4.062-3.708-7.542-3.708H21.2c-3.48 0-5.98 1.792-7.542 3.708-1.62 1.986-1.495 2.76-1.495 4.644 0 6.823 2.408 4.872 3.994 5.717 1.62.8 3.32.548 5.043.548h.034c1.757 0 3.412.228 5.044-.582 1.597-.8 3.994 1.198 3.994-5.625.034-1.87.137-2.716-1.495-4.7z" fill="#56332b"/><g fill="#442823"><path d="M21.074 12.83s-.228 3.15-.685 3.766l.844-.194-.16-3.57z"/><path d="M21.302 12.83s.228 3.15.685 3.766l-.844-.194.16-3.57z"/></g><path d="M18.575 12.1c-.32-.753.844-1.95 2.693-1.985 1.85 0 3.024 1.198 2.693 1.985-.32.776-1.495 1.004-2.693 1.038-1.164-.034-2.373-.262-2.693-1.038z" fill="#56332b"/><path d="M21.268 12.83c0-.126 1.107-.16 1.69-.548 0 0-1.198.388-1.46.228-.262-.126-.32-.525-.32-.525s-.103.388-.297.525c-.228.125-1.597-.228-1.597-.228l1.826.548c0 .103-.034.422-.034.65l.126 2.99c.194.297.125-2.18.125-2.99l-.057-.65z" fill="#000"/><path d="M21.336 17.2c.548 0 1.53.388 2.408 1.004-.844-.947-1.85-1.597-2.408-1.597-.582 0-1.826.72-2.693 1.757.9-.707 2.077-1.164 2.693-1.164z" fill="#7f4a41"/><g fill="#442823"><path d="M21.108 22.94c-1.232 0-2.442-.388-3.55-.685-.228-.068-.456.103-.685.034-2.042-.65-3.708-1.757-4.713-3.15v.32c0 6.823 2.408 4.907 3.994 5.717 1.62.8 3.32.548 5.043.548h.034c1.757 0 3.412.228 5.044-.582 1.597-.8 3.994 1.175 3.994-5.66l.034-.753c-.947 1.53-2.67 2.727-4.815 3.446-.194.07-.65-.103-.844-.068-1.164.41-2.202.833-3.537.833z"/><path d="M18.016 19.278s-.8 2.442-.262 3.514l-.753-.32c.01-.01.57-2.487 1.015-3.195zm6.446 0s.8 2.442.262 3.514l.753-.32c-.01-.01-.593-2.487-1.016-3.195z"/></g><path d="M15.94 6.818c-.297 1.004-1.335 4.416.685 3.286 0 0-.844.49-1.37 2.34S13.37 14.52 13.37 14.52s-2.18.422-3.8-.97c-1.37-1.175-1.597-3.252-1.004-4.838.582-1.597 1.62-2.042 3.15-2.373 1.53-.365 4.553-.65 4.222.48z" fill="#ccac8d"/><path d="M21.245 16.608c.88 0 3.606 1.883 3.64 4.188v-.125c0-2.408-2.214-4.325-3.64-4.325s-3.64 1.95-3.64 4.325v.125c.023-2.305 2.76-4.188 3.64-4.188z" fill="#000"/><path d="M22.08 11.57c-.068-.262-.236-.446-.377-.4s-.2.278-.132.54.236.446.377.4.2-.278.132-.54zm-1.4.142c.08-.26.033-.503-.105-.546s-.316.132-.396.4-.033.504.105.546.316-.132.396-.4z" fill="#331712"/><use xlink:href="#B" x="-17.915" fill="#000"/><use xlink:href="#C" x="-16.419" fill="#fff"/><path d="M22.09 10.56c0-.034-.753.32-.947.354-.194-.034-.947-.388-.947-.354h1.894z" fill="#7f4a41"/><path d="M16.395 10.4s-2.567 1.757-3.97 3.48c-1.392 1.723-1.37 2.043-1.37 2.043l1.004.456s1.426-2.693 3.183-3.708c1.757-1.004 1.986-1.848 1.986-1.848l-.833-.422z" fill="#efcca3"/><g fill="#ccac8d"><path d="M10.77 5.198S9.9 7.605 7.94 8.6c0 0 3.058-.354 2.83-3.412zm20.516 0s.88 2.408 2.83 3.412c0 0-3.058-.354-2.83-3.412zM25.73 9.682s-1.917-2.02-4.484-2.077c-.034 0 .07 0 .034 0s.034 0 .034 0c-2.602.068-4.484 2.077-4.484 2.077 2.248-1.563 4.165-1.53 4.484-1.53-.046 0 2.168-.034 4.416 1.53zM23.48 5.46S22.5 4.1 21.2 4.068h.07c-.97.034-2.248 1.392-2.248 1.392 1.107-1.073 2.248-1.038 2.248-1.038s1.06-.034 2.202 1.038zm-11.25 9.973s-1.53.753-2.636.297H9.56c-.97-.548-1.46-2.214-1.46-2.214s.98 2.932 4.13 1.917zm17.824 0s1.53.753 2.636.297c1.3-.548 1.495-2.214 1.495-2.214s-.98 2.932-4.13 1.917zM13.988 5.038c.844-.16 2.248-.194 3.343.16 1.392.5.262 2.27.548 2.373.297.103.685-1.232 3.286-1.107 2.636.126 2.92 1.3 3.286 1.107.354-.194-.354-3.252 3.572-2.533 0 0-4.13-1.107-3.937 1.883 0 0-2.373-1.826-5.694-.194.057 0 .902-2.796-4.404-1.7zm14.4 0c.07 0 .103.034.126.034.034 0-.023-.034-.126-.034z"/><path d="M12.858 1.033S9.344 5.45 8.83 7.15c-.525 1.723-.913 8.775-1.37 9.78L5.84 9.97l3-7.246 4.028-1.7zm16.512 0s3.514 4.416 4.028 6.116c.525 1.723.913 8.775 1.37 9.78l1.62-6.96-3-7.246-4.028-1.7z"/></g><path d="M29.198 1.033s3.765 3.15 4.872 6.79.65 8.067 1.495 8.615c1.21.787 2.58-3.857 3.035-4.347.72-.776 3.092-2.76 3.252-3.115S37.037 3.2 34.87 2.117C32.222.873 28.98.782 29.198 1.033z" fill="#56332b"/><path d="M32.427 2.984s4.45 5.694 4.393 12.78l1.792-3.64c-.046 0-1.61-4.656-6.184-9.14z" fill="#442823"/><path d="M12.858 1.033s-3.766 3.15-4.872 6.79-.65 8.067-1.495 8.615c-1.2.787-2.58-3.857-3.035-4.347-.72-.776-3.092-2.76-3.252-3.115S5.02 3.2 7.187 2.117C9.834.873 13.075.782 12.858 1.033z" fill="#56332b"/><path d="M9.63 2.984s-4.45 5.694-4.393 12.78l-1.757-3.64c.01 0 1.575-4.656 6.15-9.14z" fill="#442823"/><path d="M7.233 15.9s.32 1.757.844 2.305.16-.422.16-.422-.548-.297-.456-2.533c.103-2.237-.548.65-.548.65zm27.727 0s-.32 1.757-.844 2.305-.16-.422-.16-.422.548-.297.456-2.533c-.103-2.237.548.65.548.65z" fill="#ccac8d"/><g fill="#442823"><path d="M17.856 14.817c.145 0 .263-.118.263-.262s-.118-.262-.263-.262-.262.117-.262.262.117.262.262.262z"/><use xlink:href="#D"/><use xlink:href="#E"/><use xlink:href="#E" x="8.33"/><use xlink:href="#D" x="9.335"/><path d="M26.185 14.817c.145 0 .262-.118.262-.262s-.117-.262-.262-.262-.263.117-.263.262.118.262.263.262z"/></g><defs ><path id="B" d="M30.145 13.39c1.582 0 2.864-1.282 2.864-2.864s-1.282-2.864-2.864-2.864-2.864 1.282-2.864 2.864 1.282 2.864 2.864 2.864z"/><path id="C" d="M29.403 10.013c.416 0 .753-.337.753-.753s-.337-.753-.753-.753-.753.337-.753.753.337.753.753.753z"/><path id="D" d="M16.36 16.38c.145 0 .262-.117.262-.262s-.117-.262-.262-.262-.262.117-.262.262.117.262.262.262z"/><path id="E" d="M15.87 14.817c.145 0 .262-.118.262-.262s-.117-.262-.262-.262-.262.117-.262.262.117.262.262.262z"/></defs></svg>