<svg xmlns="http://www.w3.org/2000/svg" width="35" height="26" fill="none"><path d="M29.99 14.914c-1.19.006-2.226.293-3.092.717-.318-.63-.636-1.19-.692-1.602-.062-.48-.137-.773-.062-1.347s.412-1.4.405-1.453-.075-.355-.76-.362-1.278.13-1.347.312-.2.592-.287 1.016c-.12.624-1.372 2.85-2.09 4.015-.23-.455-.43-.854-.474-1.172-.062-.48-.137-.773-.062-1.347s.412-1.4.405-1.453-.075-.355-.76-.362-1.278.13-1.347.312-.143.605-.287 1.016-1.808 4.127-2.244 5.087l-.555 1.154s-.006.02-.025.05l-.187.355c-.094.175-.193.33-.243.33-.037 0-.106-.45.012-1.06.25-1.29.842-3.298.835-3.367 0-.037.112-.387-.387-.567-.486-.18-.66.12-.704.12s-.075.106-.075.106.542-2.257-1.035-2.257c-.985 0-2.344 1.08-3.018 2.05L9.622 16.46l-1.104.605-.075-.08c-1.908-2.04-5.437-3.48-5.287-6.216.056-.998.4-3.616 6.777-6.796 5.25-2.587 9.427-1.87 10.15-.28 1.035 2.27-2.238 6.484-7.663 7.095-2.07.23-3.155-.567-3.43-.867-.287-.312-.33-.33-.436-.268-.175.094-.062.374 0 .536.162.424.83 1.172 1.958 1.54.998.324 3.423.505 6.36-.63 3.286-1.272 5.855-4.807 5.1-7.77C21.218.325 16.23-.667 11.51 1.01c-2.806.998-5.848 2.57-8.037 4.614C.874 8.056.463 10.17.63 11.055c.605 3.142 4.938 5.187 6.67 6.702-.087.05-.168.094-.237.13-.867.43-4.17 2.157-4.994 3.984-.935 2.07.15 3.554.867 3.753 2.226.617 4.514-.492 5.742-2.325s1.08-4.215.51-5.306c-.006-.012-.012-.025-.025-.037l.68-.4c.443-.262.88-.505 1.253-.704-.212.58-.368 1.272-.443 2.27-.094 1.172.386 2.693 1.016 3.292.28.262.61.268.823.268.736 0 1.066-.61 1.434-1.334.45-.885.854-1.914.854-1.914s-.505 2.78.867 2.78c.5 0 1.004-.648 1.228-.98 0 .006.012-.012.037-.056l.08-.13c.2-.362.65-1.153 1.316-2.47.86-1.696 1.7-3.816 1.7-3.816s.075.517.33 1.378c.15.505.46 1.06.71 1.596-.2.28-.324.437-.324.437a9.43 9.43 0 0 1-.524.673c-.68.81-1.5 1.74-1.602 2.008-.13.318-.1.55.15.736.18.137.505.156.835.137.61-.044 1.04-.193 1.253-.287.33-.12.717-.3 1.08-.567a2.41 2.41 0 0 0 1.035-2.126c-.02-.51-.187-1.023-.393-1.503.062-.087.118-.175.18-.262 1.054-1.54 1.87-3.23 1.87-3.23s.075.518.33 1.378c.125.436.38.9.605 1.372-.99.804-1.602 1.74-1.82 2.35-.393 1.135-.087 1.646.493 1.764.262.056.636-.07.9-.187a4.15 4.15 0 0 0 1.153-.592c.667-.493 1.31-1.178 1.272-2.107-.02-.424-.13-.842-.287-1.247.842-.35 1.927-.542 3.31-.38 2.968.35 3.554 2.2 3.442 2.98s-.736 1.203-.94 1.334-.274.175-.256.268c.025.137.125.13.3.106.243-.044 1.56-.63 1.615-2.064.093-1.833-1.652-3.834-4.738-3.816zm-22.894 7.72c-.985 1.072-2.357 1.478-2.95 1.135-.636-.368-.387-1.95.823-3.086.736-.692 1.683-1.334 2.313-1.727l.61-.368c.044-.025.07-.037.07-.037l.15-.094c.443 1.62.02 3.05-1.016 4.177zm7.17-4.876c-.343.835-1.06 2.974-1.496 2.856-.374-.1-.605-1.72-.075-3.323.268-.804.836-1.764 1.166-2.14.536-.598 1.13-.798 1.272-.555.18.318-.655 2.637-.867 3.16zm5.917 2.83c-.143.075-.28.125-.343.087-.044-.025.062-.125.062-.125s.742-.798 1.035-1.16l.58-.742v.08c0 .954-.923 1.596-1.334 1.858zm4.564-1.04c-.106-.075-.087-.324.268-1.104.137-.306.46-.817 1.016-1.31.062.2.106.393.1.574-.006 1.203-.867 1.652-1.384 1.84z" fill="#cd6799"/></svg>